FiraSystemMaster-SemiLight.ufo
<glyph name="dollar" format="1">
  <advance width="556"/>
  <unicode hex="0024"/>
  <outline>
    <contour>
      <point x="259" y="0" type="line"/>
      <point x="259" y="-147" type="line"/>
      <point x="286" y="-147" type="line"/>
      <point x="286" y="1" type="line"/>
    </contour>
    <contour>
      <point x="259" y="840" type="line"/>
      <point x="259" y="682" type="line"/>
      <point x="286" y="682" type="line"/>
      <point x="286" y="840" type="line"/>
    </contour>
    <contour>
      <point x="157" y="685"/>
      <point x="84" y="617"/>
      <point x="84" y="527" type="curve" smooth="yes"/>
      <point x="84" y="438"/>
      <point x="133" y="394"/>
      <point x="270" y="350" type="curve" smooth="yes"/>
      <point x="395" y="311"/>
      <point x="442" y="275"/>
      <point x="442" y="180" type="curve" smooth="yes"/>
      <point x="442" y="81"/>
      <point x="369" y="19"/>
      <point x="261" y="19" type="curve" smooth="yes"/>
      <point x="178" y="19"/>
      <point x="125" y="49"/>
      <point x="77" y="91" type="curve"/>
      <point x="58" y="70" type="line"/>
      <point x="111" y="23"/>
      <point x="174" y="-10"/>
      <point x="262" y="-10" type="curve" smooth="yes"/>
      <point x="385" y="-10"/>
      <point x="472" y="67"/>
      <point x="472" y="181" type="curve" smooth="yes"/>
      <point x="472" y="292"/>
      <point x="414" y="336"/>
      <point x="280" y="377" type="curve" smooth="yes"/>
      <point x="160" y="414"/>
      <point x="115" y="447"/>
      <point x="115" y="527" type="curve" smooth="yes"/>
      <point x="115" y="603"/>
      <point x="175" y="656"/>
      <point x="268" y="656" type="curve" smooth="yes"/>
      <point x="337" y="656"/>
      <point x="382" y="638"/>
      <point x="432" y="592" type="curve"/>
      <point x="452" y="614" type="line"/>
      <point x="402" y="657"/>
      <point x="353" y="685"/>
      <point x="268" y="685" type="curve" smooth="yes"/>
    </contour>
    <contour>
      <point x="267" y="0" type="move" name="bottom"/>
    </contour>
  </outline>
</glyph>
<glyph name="one" format="1">
  <advance width="556"/>
  <unicode hex="0031"/>
  <outline>
    <contour>
      <point x="300" y="682" type="line"/>
      <point x="108" y="562" type="line"/>
      <point x="123" y="538" type="line"/>
      <point x="294" y="646" type="line"/>
      <point x="294" y="20" type="line"/>
      <point x="324" y="20" type="line"/>
      <point x="324" y="682" type="line"/>
    </contour>
    <contour>
      <point x="129" y="30" type="line"/>
      <point x="129" y="0" type="line"/>
      <point x="481" y="0" type="line"/>
      <point x="481" y="30" type="line"/>
    </contour>
  </outline>
</glyph>
<glyph name="three" format="1">
  <advance width="556"/>
  <unicode hex="0033"/>
  <outline>
    <contour>
      <point x="187" y="692"/>
      <point x="135" y="667"/>
      <point x="81" y="619" type="curve"/>
      <point x="99" y="599" type="line"/>
      <point x="155" y="646"/>
      <point x="201" y="664"/>
      <point x="263" y="664" type="curve" smooth="yes"/>
      <point x="351" y="664"/>
      <point x="415" y="610"/>
      <point x="415" y="524" type="curve" smooth="yes"/>
      <point x="415" y="418"/>
      <point x="326" y="375"/>
      <point x="256" y="375" type="curve" smooth="yes"/>
      <point x="214" y="375" type="line"/>
      <point x="210" y="348" type="line"/>
      <point x="259" y="348" type="line" smooth="yes"/>
      <point x="351" y="348"/>
      <point x="432" y="300"/>
      <point x="432" y="187" type="curve" smooth="yes"/>
      <point x="432" y="87"/>
      <point x="367" y="18"/>
      <point x="253" y="18" type="curve" smooth="yes"/>
      <point x="185" y="18"/>
      <point x="137" y="37"/>
      <point x="84" y="91" type="curve"/>
      <point x="63" y="73" type="line"/>
      <point x="116" y="18"/>
      <point x="171" y="-10"/>
      <point x="254" y="-10" type="curve" smooth="yes"/>
      <point x="381" y="-10"/>
      <point x="463" y="70"/>
      <point x="463" y="188" type="curve" smooth="yes"/>
      <point x="463" y="300"/>
      <point x="390" y="362"/>
      <point x="301" y="364" type="curve"/>
      <point x="385" y="373"/>
      <point x="446" y="429"/>
      <point x="446" y="525" type="curve" smooth="yes"/>
      <point x="446" y="622"/>
      <point x="373" y="692"/>
      <point x="264" y="692" type="curve" smooth="yes"/>
    </contour>
  </outline>
</glyph>
<glyph name="five" format="1">
  <advance width="556"/>
  <unicode hex="0035"/>
  <outline>
    <contour>
      <point x="116" y="682" type="line"/>
      <point x="116" y="361" type="line"/>
      <point x="140" y="361" type="line"/>
      <point x="178" y="385"/>
      <point x="212" y="399"/>
      <point x="269" y="399" type="curve" smooth="yes"/>
      <point x="365" y="399"/>
      <point x="428" y="341"/>
      <point x="428" y="219" type="curve" smooth="yes"/>
      <point x="428" y="96"/>
      <point x="363" y="18"/>
      <point x="256" y="18" type="curve"/>
      <point x="183" y="18"/>
      <point x="136" y="41"/>
      <point x="94" y="90" type="curve"/>
      <point x="72" y="71" type="line"/>
      <point x="118" y="18"/>
      <point x="175" y="-10"/>
      <point x="255" y="-10" type="curve"/>
      <point x="384" y="-10"/>
      <point x="460" y="84"/>
      <point x="460" y="219" type="curve" smooth="yes"/>
      <point x="460" y="350"/>
      <point x="389" y="427"/>
      <point x="270" y="427" type="curve" smooth="yes"/>
      <point x="213" y="427"/>
      <point x="174" y="410"/>
      <point x="146" y="391" type="curve"/>
      <point x="146" y="654" type="line"/>
      <point x="433" y="654" type="line"/>
      <point x="439" y="682" type="line"/>
    </contour>
  </outline>
</glyph>
<glyph name="six" format="1">
  <advance width="556"/>
  <unicode hex="0036"/>
  <outline>
    <contour>
      <point x="176" y="692"/>
      <point x="88" y="549"/>
      <point x="88" y="299" type="curve" smooth="yes"/>
      <point x="88" y="133"/>
      <point x="138" y="-10"/>
      <point x="297" y="-10" type="curve" smooth="yes"/>
      <point x="411" y="-10"/>
      <point x="486" y="75"/>
      <point x="486" y="227" type="curve" smooth="yes"/>
      <point x="486" y="371"/>
      <point x="410" y="438"/>
      <point x="303" y="438" type="curve"/>
      <point x="216" y="438"/>
      <point x="157" y="387"/>
      <point x="117" y="322" type="curve"/>
      <point x="116" y="276" type="line"/>
      <point x="157" y="356"/>
      <point x="220" y="410"/>
      <point x="302" y="410" type="curve"/>
      <point x="397" y="410"/>
      <point x="455" y="352"/>
      <point x="455" y="225" type="curve" smooth="yes"/>
      <point x="455" y="105"/>
      <point x="404" y="18"/>
      <point x="297" y="18" type="curve" smooth="yes"/>
      <point x="161" y="18"/>
      <point x="119" y="139"/>
      <point x="119" y="303" type="curve"/>
      <point x="119" y="318" type="line"/>
      <point x="121" y="518"/>
      <point x="190" y="664"/>
      <point x="322" y="664" type="curve" smooth="yes"/>
      <point x="366" y="664"/>
      <point x="393" y="653"/>
      <point x="425" y="631" type="curve"/>
      <point x="441" y="654" type="line"/>
      <point x="408" y="677"/>
      <point x="376" y="692"/>
      <point x="323" y="692" type="curve" smooth="yes"/>
    </contour>
  </outline>
</glyph>
<glyph name="seven" format="1">
  <advance width="556"/>
  <unicode hex="0037"/>
  <outline>
    <contour>
      <point x="88" y="682" type="line"/>
      <point x="88" y="654" type="line"/>
      <point x="434" y="654" type="line"/>
      <point x="148" y="3" type="line"/>
      <point x="175" y="-8" type="line"/>
      <point x="467" y="657" type="line"/>
      <point x="467" y="682" type="line"/>
    </contour>
  </outline>
</glyph>
<glyph name="eight" format="1">
  <advance width="556"/>
  <unicode hex="0038"/>
  <outline>
    <contour>
      <point x="184" y="692"/>
      <point x="100" y="632"/>
      <point x="100" y="527" type="curve" smooth="yes"/>
      <point x="100" y="442"/>
      <point x="141" y="404"/>
      <point x="234" y="368" type="curve"/>
      <point x="250" y="362" type="line"/>
      <point x="304" y="341" type="line" smooth="yes"/>
      <point x="403" y="301"/>
      <point x="454" y="267"/>
      <point x="454" y="173" type="curve" smooth="yes"/>
      <point x="454" y="69"/>
      <point x="378" y="19"/>
      <point x="277" y="19" type="curve" smooth="yes"/>
      <point x="174" y="19"/>
      <point x="101" y="70"/>
      <point x="101" y="172" type="curve" smooth="yes"/>
      <point x="101" y="268"/>
      <point x="148" y="323"/>
      <point x="271" y="362" type="curve"/>
      <point x="239" y="375" type="line"/>
      <point x="128" y="341"/>
      <point x="70" y="272"/>
      <point x="70" y="172" type="curve" smooth="yes"/>
      <point x="70" y="62"/>
      <point x="150" y="-10"/>
      <point x="276" y="-10" type="curve" smooth="yes"/>
      <point x="399" y="-10"/>
      <point x="485" y="58"/>
      <point x="485" y="173" type="curve" smooth="yes"/>
      <point x="485" y="273"/>
      <point x="436" y="316"/>
      <point x="324" y="360" type="curve"/>
      <point x="312" y="365" type="line"/>
      <point x="257" y="385" type="line" smooth="yes"/>
      <point x="155" y="425"/>
      <point x="131" y="459"/>
      <point x="131" y="526" type="curve" smooth="yes"/>
      <point x="131" y="616"/>
      <point x="197" y="664"/>
      <point x="278" y="664" type="curve" smooth="yes"/>
      <point x="360" y="664"/>
      <point x="425" y="618"/>
      <point x="425" y="525" type="curve" smooth="yes"/>
      <point x="425" y="452"/>
      <point x="386" y="408"/>
      <point x="296" y="364" type="curve"/>
      <point x="323" y="353" type="line"/>
      <point x="415" y="399"/>
      <point x="456" y="446"/>
      <point x="456" y="526" type="curve" smooth="yes"/>
      <point x="456" y="637"/>
      <point x="370" y="692"/>
      <point x="278" y="692" type="curve" smooth="yes"/>
    </contour>
  </outline>
</glyph>
<glyph name="yen" format="1">
  <advance width="556"/>
  <unicode hex="00A5"/>
  <outline>
    <contour>
      <point x="479" y="682" type="line"/>
      <point x="280" y="333" type="line"/>
      <point x="78" y="682" type="line"/>
      <point x="42" y="682" type="line"/>
      <point x="264" y="310" type="line"/>
      <point x="264" y="0" type="line"/>
      <point x="295" y="0" type="line"/>
      <point x="295" y="309" type="line"/>
      <point x="514" y="682" type="line"/>
    </contour>
    <contour>
      <point x="131" y="191" type="line"/>
      <point x="131" y="162" type="line"/>
      <point x="428" y="162" type="line"/>
      <point x="428" y="191" type="line"/>
    </contour>
    <contour>
      <point x="131" y="332" type="line"/>
      <point x="131" y="304" type="line"/>
      <point x="428" y="304" type="line"/>
      <point x="428" y="332" type="line"/>
    </contour>
  </outline>
</glyph>
<glyph name="uni030B" format="1">
  <advance width="268"/>
  <unicode hex="030B"/>
  <outline>
    <component base="hungarumlaut" xOffset="9"/>
    <contour>
      <point x="143" y="520" type="move" name="_top"/>
    </contour>
  </outline>
</glyph>
<glyph name="uni0314" format="1">
  <advance width="132"/>
  <unicode hex="0314"/>
  <outline>
    <component base="uni0326" xScale="-1" yScale="-1" xOffset="128" yOffset="502"/>
    <contour>
      <point x="58" y="520" type="move" name="_top"/>
    </contour>
  </outline>
</glyph>
<glyph name="Epsilon" format="1">
  <advance width="493"/>
  <unicode hex="0395"/>
  <outline>
    <component base="E"/>
    <contour>
      <point x="288" y="682" type="move" name="top"/>
    </contour>
    <contour>
      <point x="90" y="682" type="move" name="topleft"/>
    </contour>
  </outline>
</glyph>
<glyph name="daggerdbl" format="1">
  <advance width="556"/>
  <unicode hex="2021"/>
  <outline>
    <contour>
      <point x="75" y="238" type="line"/>
      <point x="75" y="210" type="line"/>
      <point x="482" y="210" type="line"/>
      <point x="482" y="238" type="line"/>
    </contour>
    <component base="dagger"/>
  </outline>
</glyph>
<glyph name="radical" format="1">
  <advance width="556"/>
  <unicode hex="221A"/>
  <outline>
    <contour>
      <point x="492" y="820" type="line"/>
      <point x="270" y="33" type="line"/>
      <point x="104" y="463" type="line"/>
      <point x="76" y="454" type="line"/>
      <point x="254" y="0" type="line"/>
      <point x="288" y="0" type="line"/>
      <point x="514" y="792" type="line"/>
      <point x="659" y="792" type="line"/>
      <point x="659" y="820" type="line"/>
    </contour>
  </outline>
</glyph>
<glyph name="lozenge" format="1">
  <advance width="556"/>
  <unicode hex="25CA"/>
  <outline>
    <contour>
      <point x="262" y="682" type="line"/>
      <point x="71" y="343" type="line"/>
      <point x="262" y="0" type="line"/>
      <point x="294" y="0" type="line"/>
      <point x="485" y="343" type="line"/>
      <point x="294" y="682" type="line"/>
    </contour>
    <contour>
      <point x="452" y="343" type="line"/>
      <point x="278" y="26" type="line"/>
      <point x="104" y="343" type="line"/>
      <point x="278" y="655" type="line"/>
    </contour>
  </outline>
</glyph>
<glyph name="Euro.tf" format="1">
  <advance width="556"/>
  <outline>
    <contour>
      <point x="238" y="692"/>
      <point x="146" y="594"/>
      <point x="120" y="415" type="curve"/>
      <point x="120" y="272" type="line"/>
      <point x="138" y="81"/>
      <point x="227" y="-10"/>
      <point x="358" y="-10" type="curve" smooth="yes"/>
      <point x="414" y="-10"/>
      <point x="459" y="5"/>
      <point x="499" y="30" type="curve"/>
      <point x="499" y="63" type="line"/>
      <point x="456" y="37"/>
      <point x="421" y="19"/>
      <point x="361" y="19" type="curve" smooth="yes"/>
      <point x="250" y="19"/>
      <point x="168" y="92"/>
      <point x="151" y="272" type="curve"/>
      <point x="151" y="414" type="line"/>
      <point x="175" y="581"/>
      <point x="256" y="663"/>
      <point x="361" y="663" type="curve" smooth="yes"/>
      <point x="416" y="663"/>
      <point x="453" y="650"/>
      <point x="506" y="614" type="curve"/>
      <point x="521" y="639" type="line"/>
      <point x="470" y="674"/>
      <point x="423" y="692"/>
      <point x="362" y="692" type="curve" smooth="yes"/>
    </contour>
    <contour>
      <point x="50" y="290" type="line"/>
      <point x="43" y="261" type="line"/>
      <point x="405" y="261" type="line"/>
      <point x="411" y="290" type="line"/>
    </contour>
    <contour>
      <point x="50" y="431" type="line"/>
      <point x="43" y="403" type="line"/>
      <point x="432" y="403" type="line"/>
      <point x="439" y="431" type="line"/>
    </contour>
  </outline>
</glyph>
<glyph name="Euro.tosf" format="1">
  <advance width="556"/>
  <outline>
    <contour>
      <point x="248" y="674"/>
      <point x="161" y="576"/>
      <point x="135" y="405" type="curve"/>
      <point x="135" y="262" type="line"/>
      <point x="153" y="81"/>
      <point x="237" y="-10"/>
      <point x="368" y="-10" type="curve" smooth="yes"/>
      <point x="424" y="-10"/>
      <point x="466" y="5"/>
      <point x="504" y="30" type="curve"/>
      <point x="504" y="63" type="line"/>
      <point x="463" y="37"/>
      <point x="431" y="19"/>
      <point x="371" y="19" type="curve" smooth="yes"/>
      <point x="260" y="19"/>
      <point x="183" y="92"/>
      <point x="166" y="262" type="curve"/>
      <point x="166" y="404" type="line"/>
      <point x="190" y="563"/>
      <point x="266" y="645"/>
      <point x="371" y="645" type="curve" smooth="yes"/>
      <point x="426" y="645"/>
      <point x="460" y="632"/>
      <point x="511" y="596" type="curve"/>
      <point x="526" y="621" type="line"/>
      <point x="477" y="656"/>
      <point x="433" y="674"/>
      <point x="372" y="674" type="curve" smooth="yes"/>
    </contour>
    <contour>
      <point x="65" y="279" type="line"/>
      <point x="58" y="251" type="line"/>
      <point x="415" y="251" type="line"/>
      <point x="421" y="279" type="line"/>
    </contour>
    <contour>
      <point x="65" y="421" type="line"/>
      <point x="58" y="393" type="line"/>
      <point x="442" y="393" type="line"/>
      <point x="449" y="421" type="line"/>
    </contour>
  </outline>
</glyph>
<glyph name="breve-cy.case" format="1">
  <advance width="286"/>
  <outline>
    <component base="breve-cy" yOffset="126"/>
    <contour>
      <point x="143" y="682" type="move" name="_top"/>
    </contour>
  </outline>
</glyph>
<glyph name="dagger.tf" format="1">
  <advance width="556"/>
  <outline>
    <contour>
      <point x="263" y="682" type="line"/>
      <point x="263" y="523" type="line"/>
      <point x="75" y="523" type="line"/>
      <point x="75" y="495" type="line"/>
      <point x="263" y="495" type="line"/>
      <point x="263" y="0" type="line"/>
      <point x="294" y="0" type="line"/>
      <point x="294" y="495" type="line"/>
      <point x="482" y="495" type="line"/>
      <point x="482" y="523" type="line"/>
      <point x="294" y="523" type="line"/>
      <point x="294" y="682" type="line"/>
    </contour>
  </outline>
</glyph>
<glyph name="dollar.tosf" format="1">
  <advance width="556"/>
  <outline>
    <contour>
      <point x="254" y="0" type="line"/>
      <point x="254" y="-147" type="line"/>
      <point x="281" y="-147" type="line"/>
      <point x="281" y="1" type="line"/>
    </contour>
    <contour>
      <point x="255" y="822" type="line"/>
      <point x="255" y="664" type="line"/>
      <point x="282" y="664" type="line"/>
      <point x="282" y="822" type="line"/>
    </contour>
    <contour>
      <point x="158" y="672"/>
      <point x="87" y="605"/>
      <point x="87" y="517" type="curve" smooth="yes"/>
      <point x="87" y="431"/>
      <point x="134" y="390"/>
      <point x="262" y="348" type="curve" smooth="yes"/>
      <point x="382" y="309"/>
      <point x="434" y="276"/>
      <point x="434" y="181" type="curve" smooth="yes"/>
      <point x="434" y="80"/>
      <point x="364" y="19"/>
      <point x="260" y="19" type="curve" smooth="yes"/>
      <point x="180" y="19"/>
      <point x="126" y="51"/>
      <point x="76" y="94" type="curve"/>
      <point x="58" y="73" type="line"/>
      <point x="111" y="25"/>
      <point x="176" y="-9"/>
      <point x="261" y="-9" type="curve" smooth="yes"/>
      <point x="381" y="-9"/>
      <point x="465" y="66"/>
      <point x="465" y="182" type="curve" smooth="yes"/>
      <point x="465" y="294"/>
      <point x="395" y="334"/>
      <point x="271" y="374" type="curve" smooth="yes"/>
      <point x="161" y="409"/>
      <point x="118" y="440"/>
      <point x="118" y="517" type="curve" smooth="yes"/>
      <point x="118" y="592"/>
      <point x="176" y="644"/>
      <point x="268" y="644" type="curve" smooth="yes"/>
      <point x="335" y="644"/>
      <point x="383" y="627"/>
      <point x="431" y="581" type="curve"/>
      <point x="450" y="602" type="line"/>
      <point x="402" y="646"/>
      <point x="351" y="672"/>
      <point x="268" y="672" type="curve" smooth="yes"/>
    </contour>
    <contour>
      <point x="262" y="663" type="move" name="top"/>
    </contour>
    <contour>
      <point x="265" y="1" type="move" name="bottom"/>
    </contour>
  </outline>
</glyph>
<glyph name="eight.tosf" format="1">
  <advance width="556"/>
  <outline>
    <contour>
      <point x="184" y="674"/>
      <point x="100" y="612"/>
      <point x="100" y="513" type="curve" smooth="yes"/>
      <point x="100" y="433"/>
      <point x="141" y="395"/>
      <point x="234" y="359" type="curve"/>
      <point x="250" y="353" type="line"/>
      <point x="304" y="332" type="line" smooth="yes"/>
      <point x="403" y="292"/>
      <point x="454" y="257"/>
      <point x="454" y="168" type="curve" smooth="yes"/>
      <point x="454" y="70"/>
      <point x="378" y="19"/>
      <point x="277" y="19" type="curve" smooth="yes"/>
      <point x="174" y="19"/>
      <point x="101" y="71"/>
      <point x="101" y="167" type="curve" smooth="yes"/>
      <point x="101" y="258"/>
      <point x="148" y="314"/>
      <point x="271" y="353" type="curve"/>
      <point x="239" y="366" type="line"/>
      <point x="128" y="332"/>
      <point x="70" y="262"/>
      <point x="70" y="167" type="curve" smooth="yes"/>
      <point x="70" y="63"/>
      <point x="150" y="-10"/>
      <point x="276" y="-10" type="curve" smooth="yes"/>
      <point x="399" y="-10"/>
      <point x="485" y="59"/>
      <point x="485" y="168" type="curve" smooth="yes"/>
      <point x="485" y="263"/>
      <point x="436" y="307"/>
      <point x="324" y="351" type="curve"/>
      <point x="312" y="356" type="line"/>
      <point x="257" y="377" type="line" smooth="yes"/>
      <point x="155" y="416"/>
      <point x="131" y="450"/>
      <point x="131" y="512" type="curve" smooth="yes"/>
      <point x="131" y="596"/>
      <point x="197" y="646"/>
      <point x="278" y="646" type="curve" smooth="yes"/>
      <point x="360" y="646"/>
      <point x="425" y="598"/>
      <point x="425" y="511" type="curve" smooth="yes"/>
      <point x="425" y="443"/>
      <point x="386" y="399"/>
      <point x="296" y="355" type="curve"/>
      <point x="323" y="344" type="line"/>
      <point x="415" y="390"/>
      <point x="456" y="437"/>
      <point x="456" y="512" type="curve" smooth="yes"/>
      <point x="456" y="617"/>
      <point x="370" y="674"/>
      <point x="278" y="674" type="curve" smooth="yes"/>
    </contour>
  </outline>
</glyph>
<glyph name="five.tosf" format="1">
  <advance width="556"/>
  <outline>
    <contour>
      <point x="115" y="560" type="line"/>
      <point x="115" y="246" type="line"/>
      <point x="139" y="246" type="line"/>
      <point x="181" y="272"/>
      <point x="215" y="284"/>
      <point x="274" y="284" type="curve" smooth="yes"/>
      <point x="366" y="284"/>
      <point x="432" y="226"/>
      <point x="432" y="109" type="curve"/>
      <point x="432" y="-7"/>
      <point x="364" y="-85"/>
      <point x="257" y="-85" type="curve"/>
      <point x="182" y="-85"/>
      <point x="134" y="-62"/>
      <point x="91" y="-18" type="curve"/>
      <point x="69" y="-37" type="line"/>
      <point x="116" y="-85"/>
      <point x="174" y="-113"/>
      <point x="256" y="-113" type="curve"/>
      <point x="385" y="-113"/>
      <point x="464" y="-19"/>
      <point x="464" y="109" type="curve"/>
      <point x="464" y="235"/>
      <point x="390" y="312"/>
      <point x="275" y="312" type="curve" smooth="yes"/>
      <point x="214" y="312"/>
      <point x="174" y="295"/>
      <point x="145" y="276" type="curve"/>
      <point x="145" y="532" type="line"/>
      <point x="437" y="532" type="line"/>
      <point x="443" y="560" type="line"/>
    </contour>
  </outline>
</glyph>
<glyph name="four.tf" format="1">
  <advance width="556"/>
  <outline>
    <contour>
      <point x="69" y="208" type="line"/>
      <point x="69" y="183" type="line"/>
      <point x="486" y="183" type="line"/>
      <point x="486" y="211" type="line"/>
      <point x="101" y="211" type="line"/>
      <point x="299" y="681" type="line"/>
      <point x="273" y="692" type="line"/>
    </contour>
    <contour>
      <point x="368" y="423" type="line"/>
      <point x="364" y="204" type="line"/>
      <point x="364" y="0" type="line"/>
      <point x="394" y="0" type="line"/>
      <point x="394" y="423" type="line"/>
    </contour>
  </outline>
</glyph>
<glyph name="four.tosf" format="1">
  <advance width="556"/>
  <outline>
    <contour>
      <point x="73" y="77" type="line"/>
      <point x="73" y="52" type="line"/>
      <point x="510" y="52" type="line"/>
      <point x="510" y="80" type="line"/>
      <point x="105" y="80" type="line"/>
      <point x="303" y="556" type="line"/>
      <point x="277" y="567" type="line"/>
    </contour>
    <contour>
      <point x="387" y="287" type="line"/>
      <point x="383" y="73" type="line"/>
      <point x="383" y="-102" type="line"/>
      <point x="413" y="-102" type="line"/>
      <point x="413" y="287" type="line"/>
    </contour>
  </outline>
</glyph>
<glyph name="gravecombcomb" format="1">
  <advance width="243"/>
  <outline>
    <component base="gravecomb"/>
    <contour>
      <point x="132" y="869" type="move" name="top"/>
    </contour>
    <contour>
      <point x="132" y="682" type="move" name="_top"/>
    </contour>
  </outline>
</glyph>
<glyph name="multiply.lf" format="1">
  <advance width="488"/>
  <outline>
    <contour>
      <point x="243" y="327" type="line"/>
      <point x="117" y="459" type="line"/>
      <point x="95" y="439" type="line"/>
      <point x="223" y="307" type="line"/>
      <point x="95" y="176" type="line"/>
      <point x="117" y="156" type="line"/>
      <point x="243" y="287" type="line"/>
      <point x="371" y="156" type="line"/>
      <point x="393" y="176" type="line"/>
      <point x="263" y="307" type="line"/>
      <point x="393" y="439" type="line"/>
      <point x="371" y="459" type="line"/>
    </contour>
  </outline>
</glyph>
<glyph name="nine.tf" format="1">
  <advance width="556"/>
  <outline>
    <contour>
      <point x="150" y="692"/>
      <point x="66" y="609"/>
      <point x="66" y="469" type="curve" smooth="yes"/>
      <point x="66" y="338"/>
      <point x="143" y="259"/>
      <point x="253" y="259" type="curve"/>
      <point x="331" y="259"/>
      <point x="392" y="300"/>
      <point x="438" y="375" type="curve"/>
      <point x="434" y="407" type="line"/>
      <point x="384" y="330"/>
      <point x="333" y="287"/>
      <point x="256" y="287" type="curve"/>
      <point x="159" y="287"/>
      <point x="100" y="352"/>
      <point x="100" y="468" type="curve" smooth="yes"/>
      <point x="100" y="597"/>
      <point x="166" y="664"/>
      <point x="266" y="664" type="curve" smooth="yes"/>
      <point x="387" y="664"/>
      <point x="432" y="571"/>
      <point x="433" y="396" type="curve"/>
      <point x="433" y="375" type="line"/>
      <point x="423" y="162"/>
      <point x="314" y="68"/>
      <point x="127" y="9" type="curve"/>
      <point x="135" y="-17" type="line"/>
      <point x="342" y="48"/>
      <point x="464" y="148"/>
      <point x="464" y="405" type="curve" smooth="yes"/>
      <point x="464" y="588"/>
      <point x="405" y="692"/>
      <point x="265" y="692" type="curve" smooth="yes"/>
    </contour>
  </outline>
</glyph>
<glyph name="nine.tosf" format="1">
  <advance width="556"/>
  <outline>
    <contour>
      <point x="149" y="567"/>
      <point x="68" y="484"/>
      <point x="68" y="355" type="curve" smooth="yes"/>
      <point x="68" y="229"/>
      <point x="144" y="151"/>
      <point x="256" y="151" type="curve"/>
      <point x="339" y="151"/>
      <point x="400" y="192"/>
      <point x="446" y="267" type="curve"/>
      <point x="442" y="299" type="line"/>
      <point x="392" y="222"/>
      <point x="341" y="179"/>
      <point x="259" y="179" type="curve"/>
      <point x="159" y="179"/>
      <point x="100" y="244"/>
      <point x="100" y="354" type="curve" smooth="yes"/>
      <point x="100" y="472"/>
      <point x="165" y="539"/>
      <point x="269" y="539" type="curve" smooth="yes"/>
      <point x="392" y="539"/>
      <point x="437" y="446"/>
      <point x="438" y="288" type="curve"/>
      <point x="438" y="265" type="line"/>
      <point x="429" y="64"/>
      <point x="319" y="-28"/>
      <point x="125" y="-87" type="curve"/>
      <point x="134" y="-112" type="line"/>
      <point x="351" y="-47"/>
      <point x="468" y="53"/>
      <point x="468" y="297" type="curve" smooth="yes"/>
      <point x="468" y="464"/>
      <point x="409" y="567"/>
      <point x="268" y="567" type="curve" smooth="yes"/>
    </contour>
  </outline>
</glyph>
<glyph name="numbersign.tf" format="1">
  <advance width="556"/>
  <outline>
    <contour>
      <point x="426" y="682" type="line"/>
      <point x="334" y="0" type="line"/>
      <point x="368" y="0" type="line"/>
      <point x="460" y="682" type="line"/>
    </contour>
    <contour>
      <point x="48" y="222" type="line"/>
      <point x="48" y="194" type="line"/>
      <point x="472" y="194" type="line"/>
      <point x="472" y="222" type="line"/>
    </contour>
    <contour>
      <point x="193" y="682" type="line"/>
      <point x="101" y="0" type="line"/>
      <point x="134" y="0" type="line"/>
      <point x="226" y="682" type="line"/>
    </contour>
    <contour>
      <point x="85" y="494" type="line"/>
      <point x="85" y="466" type="line"/>
      <point x="509" y="466" type="line"/>
      <point x="509" y="494" type="line"/>
    </contour>
  </outline>
</glyph>
<glyph name="one.tosf" format="1">
  <advance width="556"/>
  <outline>
    <contour>
      <point x="302" y="560" type="line"/>
      <point x="100" y="440" type="line"/>
      <point x="115" y="416" type="line"/>
      <point x="296" y="524" type="line"/>
      <point x="296" y="10" type="line"/>
      <point x="326" y="10" type="line"/>
      <point x="326" y="560" type="line"/>
    </contour>
    <contour>
      <point x="120" y="29" type="line"/>
      <point x="120" y="0" type="line"/>
      <point x="481" y="0" type="line"/>
      <point x="481" y="29" type="line"/>
    </contour>
  </outline>
</glyph>
<glyph name="partialdiff.tf" format="1">
  <advance width="556"/>
  <outline>
    <contour>
      <point x="146" y="687" type="line"/>
      <point x="330" y="622"/>
      <point x="417" y="506"/>
      <point x="423" y="287" type="curve"/>
      <point x="422" y="274" type="line"/>
      <point x="424" y="110"/>
      <point x="370" y="18"/>
      <point x="260" y="18" type="curve" smooth="yes"/>
      <point x="172" y="18"/>
      <point x="105" y="80"/>
      <point x="105" y="203" type="curve" smooth="yes"/>
      <point x="105" y="314"/>
      <point x="172" y="378"/>
      <point x="249" y="378" type="curve" smooth="yes"/>
      <point x="326" y="378"/>
      <point x="372" y="341"/>
      <point x="426" y="252" type="curve"/>
      <point x="429" y="288" type="line"/>
      <point x="381" y="371"/>
      <point x="324" y="406"/>
      <point x="247" y="406" type="curve" smooth="yes"/>
      <point x="157" y="406"/>
      <point x="73" y="330"/>
      <point x="73" y="204" type="curve" smooth="yes"/>
      <point x="73" y="59"/>
      <point x="164" y="-10"/>
      <point x="260" y="-10" type="curve" smooth="yes"/>
      <point x="386" y="-10"/>
      <point x="454" y="94"/>
      <point x="454" y="264" type="curve" smooth="yes"/>
      <point x="454" y="515"/>
      <point x="352" y="648"/>
      <point x="153" y="712" type="curve"/>
    </contour>
  </outline>
</glyph>
<glyph name="product.tf" format="1">
  <advance width="556"/>
  <outline>
    <contour>
      <point x="61" y="682" type="line"/>
      <point x="61" y="654" type="line"/>
      <point x="139" y="654" type="line"/>
      <point x="139" y="-199" type="line"/>
      <point x="169" y="-195" type="line"/>
      <point x="169" y="654" type="line"/>
      <point x="387" y="654" type="line"/>
      <point x="387" y="-199" type="line"/>
      <point x="417" y="-195" type="line"/>
      <point x="417" y="654" type="line"/>
      <point x="495" y="654" type="line"/>
      <point x="495" y="682" type="line"/>
    </contour>
  </outline>
</glyph>
<glyph name="section.tf" format="1">
  <advance width="556"/>
  <outline>
    <contour>
      <point x="195" y="692"/>
      <point x="129" y="641"/>
      <point x="129" y="560" type="curve" smooth="yes"/>
      <point x="129" y="487"/>
      <point x="164" y="455"/>
      <point x="292" y="415" type="curve" smooth="yes"/>
      <point x="406" y="379"/>
      <point x="423" y="348"/>
      <point x="423" y="294" type="curve" smooth="yes"/>
      <point x="423" y="246"/>
      <point x="404" y="212"/>
      <point x="340" y="175" type="curve"/>
      <point x="358" y="160" type="line"/>
      <point x="428" y="200"/>
      <point x="454" y="241"/>
      <point x="454" y="295" type="curve" smooth="yes"/>
      <point x="454" y="368"/>
      <point x="414" y="404"/>
      <point x="300" y="440" type="curve" smooth="yes"/>
      <point x="183" y="477"/>
      <point x="160" y="501"/>
      <point x="160" y="561" type="curve" smooth="yes"/>
      <point x="160" y="619"/>
      <point x="206" y="664"/>
      <point x="282" y="664" type="curve" smooth="yes"/>
      <point x="341" y="664"/>
      <point x="378" y="651"/>
      <point x="421" y="624" type="curve"/>
      <point x="437" y="647" type="line"/>
      <point x="395" y="673"/>
      <point x="355" y="692"/>
      <point x="283" y="692" type="curve" smooth="yes"/>
    </contour>
    <contour>
      <point x="134" y="429"/>
      <point x="102" y="385"/>
      <point x="102" y="332" type="curve" smooth="yes"/>
      <point x="102" y="251"/>
      <point x="156" y="221"/>
      <point x="269" y="184" type="curve" smooth="yes"/>
      <point x="379" y="148"/>
      <point x="399" y="124"/>
      <point x="399" y="66" type="curve" smooth="yes"/>
      <point x="399" y="5"/>
      <point x="354" y="-38"/>
      <point x="268" y="-38" type="curve" smooth="yes"/>
      <point x="206" y="-38"/>
      <point x="161" y="-25"/>
      <point x="120" y="3" type="curve"/>
      <point x="104" y="-21" type="line"/>
      <point x="150" y="-49"/>
      <point x="196" y="-66"/>
      <point x="268" y="-66" type="curve" smooth="yes"/>
      <point x="363" y="-66"/>
      <point x="430" y="-16"/>
      <point x="430" y="68" type="curve" smooth="yes"/>
      <point x="430" y="149"/>
      <point x="386" y="174"/>
      <point x="277" y="210" type="curve" smooth="yes"/>
      <point x="159" y="249"/>
      <point x="133" y="273"/>
      <point x="133" y="333" type="curve" smooth="yes"/>
      <point x="133" y="380"/>
      <point x="157" y="417"/>
      <point x="216" y="454" type="curve"/>
      <point x="198" y="469" type="line"/>
    </contour>
  </outline>
</glyph>
<glyph name="six.tosf" format="1">
  <advance width="556"/>
  <outline>
    <contour>
      <point x="173" y="674"/>
      <point x="85" y="531"/>
      <point x="85" y="289" type="curve" smooth="yes"/>
      <point x="85" y="127"/>
      <point x="137" y="-10"/>
      <point x="290" y="-10" type="curve" smooth="yes"/>
      <point x="409" y="-10"/>
      <point x="485" y="75"/>
      <point x="485" y="222" type="curve" smooth="yes"/>
      <point x="485" y="363"/>
      <point x="408" y="428"/>
      <point x="302" y="428" type="curve"/>
      <point x="212" y="428"/>
      <point x="153" y="377"/>
      <point x="113" y="312" type="curve"/>
      <point x="112" y="266" type="line"/>
      <point x="153" y="346"/>
      <point x="216" y="400"/>
      <point x="301" y="400" type="curve"/>
      <point x="393" y="400"/>
      <point x="454" y="344"/>
      <point x="454" y="221" type="curve" smooth="yes"/>
      <point x="454" y="105"/>
      <point x="402" y="18"/>
      <point x="290" y="18" type="curve" smooth="yes"/>
      <point x="160" y="18"/>
      <point x="116" y="134"/>
      <point x="116" y="293" type="curve"/>
      <point x="116" y="308" type="line"/>
      <point x="118" y="500"/>
      <point x="187" y="646"/>
      <point x="321" y="646" type="curve"/>
      <point x="367" y="646"/>
      <point x="395" y="635"/>
      <point x="430" y="612" type="curve"/>
      <point x="445" y="636" type="line"/>
      <point x="410" y="659"/>
      <point x="377" y="674"/>
      <point x="322" y="674" type="curve"/>
    </contour>
  </outline>
</glyph>
<glyph name="sterling.tf" format="1">
  <advance width="556"/>
  <outline>
    <contour>
      <point x="212" y="692"/>
      <point x="160" y="616"/>
      <point x="160" y="523" type="curve"/>
      <point x="160" y="142" type="line"/>
      <point x="160" y="81"/>
      <point x="135" y="58"/>
      <point x="76" y="28" type="curve"/>
      <point x="76" y="0" type="line"/>
      <point x="464" y="0" type="line"/>
      <point x="468" y="29" type="line"/>
      <point x="119" y="29" type="line"/>
      <point x="167" y="53"/>
      <point x="190" y="77"/>
      <point x="190" y="144" type="curve"/>
      <point x="190" y="522" type="line"/>
      <point x="190" y="603"/>
      <point x="232" y="664"/>
      <point x="325" y="664" type="curve" smooth="yes"/>
      <point x="390" y="664"/>
      <point x="425" y="643"/>
      <point x="459" y="604" type="curve"/>
      <point x="480" y="623" type="line"/>
      <point x="440" y="669"/>
      <point x="396" y="692"/>
      <point x="325" y="692" type="curve" smooth="yes"/>
    </contour>
    <contour>
      <point x="95" y="377" type="line"/>
      <point x="95" y="349" type="line"/>
      <point x="423" y="349" type="line"/>
      <point x="423" y="377" type="line"/>
    </contour>
  </outline>
</glyph>
<glyph name="sterling.tosf" format="1">
  <advance width="556"/>
  <outline>
    <contour>
      <point x="224" y="674"/>
      <point x="172" y="598"/>
      <point x="172" y="505" type="curve"/>
      <point x="172" y="142" type="line"/>
      <point x="172" y="81"/>
      <point x="147" y="58"/>
      <point x="88" y="28" type="curve"/>
      <point x="88" y="0" type="line"/>
      <point x="452" y="0" type="line"/>
      <point x="456" y="29" type="line"/>
      <point x="131" y="29" type="line"/>
      <point x="179" y="53"/>
      <point x="202" y="77"/>
      <point x="202" y="144" type="curve"/>
      <point x="202" y="504" type="line"/>
      <point x="202" y="585"/>
      <point x="244" y="646"/>
      <point x="325" y="646" type="curve" smooth="yes"/>
      <point x="383" y="646"/>
      <point x="413" y="627"/>
      <point x="447" y="588" type="curve"/>
      <point x="468" y="607" type="line"/>
      <point x="428" y="653"/>
      <point x="389" y="674"/>
      <point x="325" y="674" type="curve" smooth="yes"/>
    </contour>
    <contour>
      <point x="107" y="367" type="line"/>
      <point x="107" y="339" type="line"/>
      <point x="411" y="339" type="line"/>
      <point x="411" y="367" type="line"/>
    </contour>
  </outline>
</glyph>
<glyph name="summation.tf" format="1">
  <advance width="556"/>
  <outline>
    <contour>
      <point x="90" y="682" type="line"/>
      <point x="90" y="666" type="line"/>
      <point x="334" y="344" type="line"/>
      <point x="90" y="14" type="line"/>
      <point x="90" y="0" type="line"/>
      <point x="465" y="0" type="line"/>
      <point x="465" y="28" type="line"/>
      <point x="133" y="28" type="line"/>
      <point x="365" y="337" type="line"/>
      <point x="365" y="352" type="line"/>
      <point x="134" y="654" type="line"/>
      <point x="465" y="654" type="line"/>
      <point x="465" y="682" type="line"/>
    </contour>
  </outline>
</glyph>
<glyph name="three.tosf" format="1">
  <advance width="556"/>
  <outline>
    <contour>
      <point x="188" y="567"/>
      <point x="129" y="543"/>
      <point x="77" y="494" type="curve"/>
      <point x="95" y="474" type="line"/>
      <point x="148" y="521"/>
      <point x="196" y="539"/>
      <point x="265" y="539" type="curve" smooth="yes"/>
      <point x="359" y="539"/>
      <point x="416" y="485"/>
      <point x="416" y="408" type="curve" smooth="yes"/>
      <point x="416" y="310"/>
      <point x="342" y="270"/>
      <point x="258" y="270" type="curve" smooth="yes"/>
      <point x="198" y="270" type="line"/>
      <point x="194" y="243" type="line"/>
      <point x="261" y="243" type="line" smooth="yes"/>
      <point x="360" y="243"/>
      <point x="433" y="195"/>
      <point x="433" y="83" type="curve" smooth="yes"/>
      <point x="433" y="-16"/>
      <point x="374" y="-85"/>
      <point x="253" y="-85" type="curve" smooth="yes"/>
      <point x="179" y="-85"/>
      <point x="129" y="-63"/>
      <point x="80" y="-12" type="curve"/>
      <point x="59" y="-30" type="line"/>
      <point x="108" y="-82"/>
      <point x="165" y="-113"/>
      <point x="254" y="-113" type="curve" smooth="yes"/>
      <point x="388" y="-113"/>
      <point x="464" y="-31"/>
      <point x="464" y="84" type="curve" smooth="yes"/>
      <point x="464" y="195"/>
      <point x="395" y="253"/>
      <point x="312" y="258" type="curve"/>
      <point x="393" y="267"/>
      <point x="447" y="319"/>
      <point x="447" y="409" type="curve" smooth="yes"/>
      <point x="447" y="497"/>
      <point x="380" y="567"/>
      <point x="266" y="567" type="curve" smooth="yes"/>
    </contour>
  </outline>
</glyph>
<glyph name="two.tf" format="1">
  <advance width="556"/>
  <outline>
    <contour>
      <point x="175" y="692"/>
      <point x="122" y="664"/>
      <point x="68" y="602" type="curve"/>
      <point x="91" y="586" type="line"/>
      <point x="131" y="633"/>
      <point x="181" y="664"/>
      <point x="259" y="664" type="curve" smooth="yes"/>
      <point x="351" y="664"/>
      <point x="408" y="605"/>
      <point x="408" y="513" type="curve" smooth="yes"/>
      <point x="408" y="390"/>
      <point x="350" y="307"/>
      <point x="74" y="29" type="curve"/>
      <point x="74" y="0" type="line"/>
      <point x="452" y="0" type="line"/>
      <point x="458" y="30" type="line"/>
      <point x="112" y="30" type="line"/>
      <point x="369" y="289"/>
      <point x="439" y="378"/>
      <point x="439" y="515" type="curve" smooth="yes"/>
      <point x="439" y="617"/>
      <point x="373" y="692"/>
      <point x="260" y="692" type="curve" smooth="yes"/>
    </contour>
  </outline>
</glyph>
<glyph name="two.tosf" format="1">
  <advance width="556"/>
  <outline>
    <contour>
      <point x="186" y="567"/>
      <point x="128" y="539"/>
      <point x="75" y="467" type="curve"/>
      <point x="97" y="450" type="line"/>
      <point x="140" y="508"/>
      <point x="191" y="539"/>
      <point x="267" y="539" type="curve" smooth="yes"/>
      <point x="364" y="539"/>
      <point x="411" y="480"/>
      <point x="411" y="399" type="curve" smooth="yes"/>
      <point x="411" y="303"/>
      <point x="354" y="211"/>
      <point x="87" y="29" type="curve"/>
      <point x="87" y="0" type="line"/>
      <point x="455" y="0" type="line"/>
      <point x="461" y="30" type="line"/>
      <point x="130" y="30" type="line"/>
      <point x="373" y="194"/>
      <point x="442" y="291"/>
      <point x="442" y="402" type="curve" smooth="yes"/>
      <point x="442" y="493"/>
      <point x="385" y="567"/>
      <point x="268" y="567" type="curve" smooth="yes"/>
    </contour>
  </outline>
</glyph>
<glyph name="zero.tf.zero" format="1">
  <advance width="556"/>
  <outline>
    <contour>
      <point x="149" y="692"/>
      <point x="75" y="578"/>
      <point x="75" y="341" type="curve" smooth="yes"/>
      <point x="75" y="105"/>
      <point x="149" y="-10"/>
      <point x="278" y="-10" type="curve" smooth="yes"/>
      <point x="406" y="-10"/>
      <point x="480" y="103"/>
      <point x="480" y="339" type="curve" smooth="yes"/>
      <point x="480" y="578"/>
      <point x="407" y="692"/>
      <point x="278" y="692" type="curve" smooth="yes"/>
    </contour>
    <contour>
      <point x="388" y="664"/>
      <point x="449" y="560"/>
      <point x="449" y="339" type="curve" smooth="yes"/>
      <point x="449" y="119"/>
      <point x="387" y="18"/>
      <point x="278" y="18" type="curve" smooth="yes"/>
      <point x="169" y="18"/>
      <point x="106" y="121"/>
      <point x="106" y="341" type="curve" smooth="yes"/>
      <point x="106" y="562"/>
      <point x="170" y="664"/>
      <point x="278" y="664" type="curve" smooth="yes"/>
    </contour>
    <contour>
      <point x="155" y="77" type="line"/>
      <point x="173" y="51" type="line"/>
      <point x="403" y="614" type="line"/>
      <point x="385" y="640" type="line"/>
    </contour>
  </outline>
</glyph>
<glyph name="zero.tosf" format="1">
  <advance width="556"/>
  <outline>
    <contour>
      <point x="142" y="567"/>
      <point x="48" y="458"/>
      <point x="48" y="278" type="curve" smooth="yes"/>
      <point x="48" y="94"/>
      <point x="144" y="-8"/>
      <point x="278" y="-8" type="curve" smooth="yes"/>
      <point x="417" y="-8"/>
      <point x="508" y="101"/>
      <point x="508" y="278" type="curve" smooth="yes"/>
      <point x="508" y="464"/>
      <point x="416" y="567"/>
      <point x="278" y="567" type="curve" smooth="yes"/>
    </contour>
    <contour>
      <point x="396" y="539"/>
      <point x="477" y="450"/>
      <point x="477" y="278" type="curve" smooth="yes"/>
      <point x="477" y="112"/>
      <point x="396" y="20"/>
      <point x="278" y="20" type="curve" smooth="yes"/>
      <point x="165" y="20"/>
      <point x="79" y="108"/>
      <point x="79" y="278" type="curve" smooth="yes"/>
      <point x="79" y="448"/>
      <point x="164" y="539"/>
      <point x="279" y="539" type="curve" smooth="yes"/>
    </contour>
  </outline>
</glyph>
